<svg width="1920" height="3639" viewBox="0 0 1920 3639" fill="none" xmlns="http://www.w3.org/2000/svg">
<g clip-path="url(#clip0_2198_711)">
<rect width="1920" height="3639" fill="#0A0E17"/>
<g opacity="0.3">
<path d="M-114.701 3638.83C-104.378 3638.83 -94.0554 3634.96 -86.2142 3627.11L208.773 3332.13C224.456 3316.44 224.456 3290.94 208.773 3275.25C201.131 3267.61 191.007 3263.44 180.287 3263.44C169.567 3263.44 159.443 3267.61 151.801 3275.25L-143.187 3570.24C-150.83 3577.88 -154.998 3587.91 -154.998 3598.73C-154.998 3609.45 -150.83 3619.57 -143.187 3627.21C-135.246 3634.96 -125.023 3638.83 -114.701 3638.83ZM180.287 3265.43C190.51 3265.43 200.138 3269.4 207.285 3276.64C222.173 3291.53 222.173 3315.85 207.285 3330.74L-87.703 3625.72C-102.591 3640.61 -126.909 3640.61 -141.797 3625.72C-149.043 3618.48 -153.013 3608.85 -153.013 3598.73C-153.013 3588.5 -149.043 3578.88 -141.797 3571.73L153.29 3276.64C160.436 3269.4 170.064 3265.43 180.287 3265.43Z" fill="#00F0B5"/>
<path d="M-102.79 3564.38C-92.4678 3564.38 -82.1452 3560.51 -74.304 3552.67L220.684 3257.68C236.366 3242 236.366 3216.49 220.684 3200.81C213.041 3193.17 202.917 3189 192.197 3189C181.478 3189 171.354 3193.17 163.711 3200.81L-131.277 3495.8C-138.919 3503.44 -143.088 3513.47 -143.088 3524.29C-143.088 3535 -138.919 3545.13 -131.277 3552.77C-123.336 3560.51 -113.113 3564.38 -102.79 3564.38ZM192.197 3190.99C202.421 3190.99 212.048 3194.96 219.195 3202.2C234.083 3217.09 234.083 3241.41 219.195 3256.3L-75.7928 3551.28C-90.6812 3566.17 -114.999 3566.17 -129.887 3551.28C-137.133 3544.04 -141.103 3534.41 -141.103 3524.29C-141.103 3514.06 -137.133 3504.43 -129.887 3497.29L165.2 3202.2C172.346 3194.96 181.974 3190.99 192.197 3190.99Z" fill="#00F0B5"/>
</g>
<path d="M1695.24 1843.02C1766.83 1777.4 1810.68 1657.05 1923.06 1675.22C2035.19 1693.34 2075.53 1838.63 2163.69 1918.75C2259.74 2006.04 2453.1 2045.59 2453.6 2157.34C2454.1 2271.32 2255.54 2237.79 2165.37 2299.31C2093.56 2348.3 2089.02 2502.39 1990.4 2473.32C1885.7 2442.46 1850.65 2329.78 1767.58 2254.78C1675.08 2171.28 1561.1 2154.51 1517.82 2046.67C1477.61 1946.47 1625.84 1906.64 1695.24 1843.02Z" fill="url(#paint0_linear_2198_711)"/>
<g opacity="0.4">
<path d="M1722.48 2732.04L1698 2756.43L1699.57 2758L1724.06 2733.61L1722.48 2732.04Z" fill="#00F0B5"/>
<path d="M1746.97 2732.03L1722.49 2756.42L1724.06 2757.99L1748.54 2733.6L1746.97 2732.03Z" fill="#00F0B5"/>
<path d="M1771.45 2732.01L1746.97 2756.41L1748.55 2757.98L1773.03 2733.58L1771.45 2732.01Z" fill="#00F0B5"/>
<path d="M1795.94 2732.01L1771.46 2756.4L1773.03 2757.97L1797.51 2733.57L1795.94 2732.01Z" fill="#00F0B5"/>
<path d="M1820.42 2732L1795.95 2756.39L1797.52 2757.96L1822 2733.57L1820.42 2732Z" fill="#00F0B5"/>
</g>
<g opacity="0.4">
<path d="M248.449 1581.59C235.96 1549.87 209.934 1533.58 178.897 1524.35C147.837 1515.11 111.869 1512.96 79.5729 1509.45C46.5398 1505.86 9.7136 1499.32 -24.1926 1501.12C-58.0699 1502.92 -88.9148 1513.03 -110.012 1542.66C-130.489 1571.41 -126.136 1603.12 -116.3 1636.6C-113.842 1644.97 -111.046 1653.43 -108.213 1661.99C-105.381 1670.54 -102.512 1679.17 -99.9182 1687.87C-94.73 1705.26 -90.6272 1722.9 -90.0829 1740.61C-89.4864 1760.03 -93.1639 1780.3 -98.243 1800.59C-100.783 1810.73 -103.676 1820.89 -106.563 1830.96C-109.45 1841.02 -112.331 1850.99 -114.853 1860.78C-124.952 1899.95 -129.208 1935.83 -105.211 1962.24C-79.5872 1990.45 -40.2886 2002.35 0.884627 2001.45C42.0541 2000.54 85.0248 1986.83 117.904 1963.9C146.247 1944.13 156.192 1912.29 161.955 1876.69C164.839 1858.88 166.666 1840.21 169.245 1821.64C171.822 1803.08 175.145 1784.67 181.013 1767.48C186.64 1751 195.191 1734.94 204.458 1719.19C213.738 1703.41 223.709 1687.98 232.245 1672.65C249.312 1641.99 260.446 1612.05 248.449 1581.59Z" stroke="#00F0B5"/>
<path d="M198.99 1615.05C189.174 1590.12 168.717 1577.31 144.297 1570.05C119.855 1562.78 91.5503 1561.09 66.1145 1558.32C40.0958 1555.5 11.1172 1550.35 -15.5672 1551.77C-42.2229 1553.18 -66.4723 1561.13 -83.0576 1584.42C-99.1494 1607.02 -95.7354 1631.95 -87.9928 1658.3C-86.0582 1664.88 -83.8567 1671.55 -81.6261 1678.28C-79.3964 1685.01 -77.1377 1691.82 -75.0947 1698.66C-71.0088 1712.36 -67.7747 1726.26 -67.3458 1740.22C-66.8757 1755.52 -69.7747 1771.49 -73.7745 1787.47C-75.7748 1795.46 -78.0529 1803.46 -80.3257 1811.38C-82.5993 1819.31 -84.8673 1827.16 -86.8524 1834.86C-94.8048 1865.7 -98.1362 1893.9 -79.2853 1914.65C-59.1383 1936.82 -28.231 1946.19 4.1675 1945.48C36.5621 1944.77 70.3742 1933.98 96.2439 1915.93C118.522 1900.39 126.346 1875.36 130.883 1847.34C133.154 1833.32 134.591 1818.63 136.623 1804C138.652 1789.39 141.269 1774.88 145.893 1761.34C150.327 1748.35 157.064 1735.7 164.361 1723.3C171.671 1710.87 179.517 1698.73 186.238 1686.66C199.674 1662.52 208.416 1638.99 198.99 1615.05Z" stroke="#00F0B5"/>
<path d="M163.254 1639.23C155.369 1619.2 138.937 1608.91 119.298 1603.07C99.6367 1597.22 76.8692 1595.86 56.3897 1593.63C35.4391 1591.36 12.1305 1587.22 -9.33607 1588.36C-30.7742 1589.49 -50.2577 1595.89 -63.583 1614.6C-76.5062 1632.75 -73.7718 1652.77 -67.5418 1673.97C-65.9853 1679.27 -64.2133 1684.63 -62.4179 1690.06C-60.6234 1695.47 -58.8051 1700.95 -57.1603 1706.46C-53.8708 1717.49 -51.2654 1728.69 -50.9197 1739.93C-50.5409 1752.26 -52.8762 1765.13 -56.0962 1777.99C-57.7066 1784.42 -59.5407 1790.86 -61.3699 1797.24C-63.1999 1803.62 -65.0254 1809.94 -66.6227 1816.13C-73.024 1840.96 -75.6876 1863.6 -60.5547 1880.26C-44.3648 1898.08 -19.521 1905.61 6.53735 1905.04C32.592 1904.47 59.788 1895.79 80.5933 1881.28C98.4898 1868.79 104.782 1848.68 108.432 1826.13C110.26 1814.85 111.415 1803.04 113.052 1791.25C114.685 1779.49 116.792 1767.81 120.516 1756.9C124.088 1746.44 129.515 1736.25 135.389 1726.26C141.276 1716.26 147.586 1706.49 152.996 1696.78C163.808 1677.36 170.822 1658.45 163.254 1639.23Z" stroke="#00F0B5"/>
</g>
<g opacity="0.4">
<path d="M1973.29 844.22C2012.7 856.321 2047.71 843.986 2079.82 821.615C2111.94 799.231 2141.07 766.865 2168.69 739.01C2196.95 710.521 2230.86 680.649 2254.7 647.263C2278.53 613.9 2292.22 577.12 2280.11 534.844C2268.35 493.801 2235.08 474.018 2196.05 458.097C2186.3 454.118 2176.19 450.384 2165.98 446.619C2155.77 442.856 2145.46 439.061 2135.29 434.965C2114.97 426.774 2095.22 417.367 2078.1 404.552C2059.32 390.504 2042.95 371.777 2027.61 351.705C2019.95 341.667 2012.53 331.287 2005.2 320.983C1997.87 310.676 1990.62 300.445 1983.28 290.697C1953.89 251.665 1923.17 220.581 1880.09 223.359C1834.12 226.324 1793.25 254.5 1763.09 294.083C1732.94 333.664 1713.52 384.594 1710.43 432.939C1707.76 474.641 1730.37 508.037 1759.65 540.289C1774.3 556.423 1790.56 572.21 1806.16 588.63C1821.74 605.032 1836.63 622.03 1848.44 640.508C1859.76 658.225 1868.48 678.383 1876.38 698.996C1884.29 719.632 1891.36 740.678 1899.42 760.286C1915.52 799.491 1935.43 832.594 1973.29 844.22Z" stroke="#00F0B5"/>
<path d="M1978.92 772.309C2009.9 781.823 2037.44 772.129 2062.7 754.525C2087.98 736.908 2110.9 711.437 2132.66 689.5C2154.92 667.061 2181.61 643.552 2200.37 617.275C2219.12 591.021 2229.88 562.096 2220.36 528.853C2211.12 496.589 2184.97 481.029 2154.24 468.496C2146.56 465.365 2138.61 462.425 2130.57 459.461C2122.53 456.498 2114.41 453.51 2106.4 450.284C2090.4 443.833 2074.84 436.422 2061.34 426.324C2046.55 415.254 2033.66 400.501 2021.58 384.695C2015.54 376.79 2009.7 368.616 2003.93 360.503C1998.15 352.387 1992.45 344.333 1986.67 336.66C1963.53 305.926 1939.38 281.502 1905.52 283.685C1869.36 286.016 1837.22 308.177 1813.48 339.328C1789.75 370.476 1774.47 410.556 1772.04 448.599C1769.93 481.387 1787.71 507.652 1810.76 533.042C1822.3 545.744 1835.09 558.167 1847.38 571.101C1859.65 584.017 1871.38 597.405 1880.68 611.962C1889.6 625.921 1896.47 641.8 1902.69 658.032C1908.92 674.286 1914.49 690.847 1920.83 706.286C1933.51 737.151 1949.17 763.171 1978.92 772.309Z" stroke="#00F0B5"/>
<path d="M1983 720.351C2007.89 727.996 2030.02 720.211 2050.34 706.052C2070.68 691.879 2089.12 671.389 2106.64 653.727C2124.55 635.661 2146.03 616.75 2161.12 595.609C2176.2 574.492 2184.85 551.242 2177.2 524.525C2169.77 498.604 2148.76 486.095 2124.04 476.01C2117.86 473.49 2111.46 471.126 2104.99 468.74C2098.52 466.355 2091.98 463.949 2085.54 461.352C2072.65 456.159 2060.12 450.191 2049.25 442.056C2037.33 433.139 2026.94 421.255 2017.22 408.531C2012.36 402.168 2007.66 395.587 2003.01 389.058C1998.36 382.526 1993.77 376.045 1989.12 369.87C1970.5 345.132 1951.09 325.519 1923.9 327.273C1894.83 329.147 1868.98 346.96 1849.89 372.018C1830.8 397.073 1818.51 429.313 1816.55 459.912C1814.87 486.261 1829.15 507.375 1847.7 527.806C1856.98 538.03 1867.28 548.021 1877.17 558.436C1887.05 568.832 1896.49 579.614 1903.98 591.338C1911.17 602.582 1916.7 615.369 1921.71 628.435C1926.72 641.524 1931.2 654.845 1936.3 667.27C1946.5 692.109 1959.09 713.011 1983 720.351Z" stroke="#00F0B5"/>
</g>
</g>
<defs>
<linearGradient id="paint0_linear_2198_711" x1="1703.07" y1="1533.42" x2="1993.89" y2="2323.61" gradientUnits="userSpaceOnUse">
<stop offset="0.168269" stop-color="#F4F5F7" stop-opacity="0"/>
<stop offset="0.899038" stop-color="#23AE8C"/>
</linearGradient>
<clipPath id="clip0_2198_711">
<rect width="1920" height="3639" fill="white"/>
</clipPath>
</defs>
</svg>
