<svg width="40" height="40" viewBox="0 0 40 40" fill="none" xmlns="http://www.w3.org/2000/svg">
<path d="M19.6148 4.60391C19.4695 4.45859 19.2688 4.375 19.0625 4.375C18.857 4.375 18.6555 4.45859 18.5102 4.60391C18.3648 4.74922 18.2812 4.95078 18.2812 5.15625C18.2812 5.36172 18.3648 5.56328 18.5102 5.70859C18.6562 5.85391 18.857 5.9375 19.0625 5.9375C19.268 5.9375 19.4695 5.85391 19.6148 5.70859C19.7609 5.56328 19.8438 5.36172 19.8438 5.15625C19.8438 4.95078 19.7609 4.74922 19.6148 4.60391Z" fill="#00F0B5"/>
<path d="M39.2188 29.8438H37.9688V8.59375C37.9688 6.2675 36.0762 4.375 33.75 4.375H22.3438C21.9123 4.375 21.5625 4.72477 21.5625 5.15625C21.5625 5.58773 21.9123 5.9375 22.3438 5.9375H33.75C35.2147 5.9375 36.4062 7.12906 36.4062 8.59375V11.6041L16.6874 24.1003L10.2766 17.6895C10.1301 17.543 9.93141 17.4607 9.72422 17.4607C9.51703 17.4607 9.31836 17.543 9.1718 17.6895L3.59375 23.2675V18.5996L9.72422 12.4691L16.0248 18.7698C16.2834 19.0284 16.6867 19.0728 16.9954 18.8773L29.2244 11.1275C29.2641 11.4614 29.5176 11.7441 29.8659 11.8048C29.9112 11.8127 29.9563 11.8165 30.0009 11.8165C30.3736 11.8165 30.7035 11.5489 30.7697 11.1692L31.0838 9.36594C31.1234 9.13867 31.0605 8.90563 30.9122 8.72906C30.7638 8.5525 30.5448 8.45062 30.3142 8.45062H28.5692C28.1378 8.45062 27.788 8.80039 27.788 9.23187C27.788 9.53211 27.9575 9.79242 28.2059 9.9232L16.6874 17.2227L10.2766 10.812C10.1301 10.6655 9.93141 10.5831 9.72422 10.5831C9.51703 10.5831 9.31836 10.6655 9.1718 10.812L3.59375 16.3899V8.59375C3.59375 7.12906 4.78531 5.9375 6.25 5.9375H15.5469C15.9783 5.9375 16.3281 5.58773 16.3281 5.15625C16.3281 4.72477 15.9783 4.375 15.5469 4.375H6.25C3.92383 4.375 2.03125 6.2675 2.03125 8.59375V18.2756C2.03125 18.2759 2.03125 18.2762 2.03125 18.2764V25.1532C2.03125 25.1534 2.03125 25.1538 2.03125 25.154V29.8438H0.78125C0.349844 29.8438 0 30.1935 0 30.625V31.6406C0 33.8377 1.78742 35.625 3.98438 35.625H36.0156C38.2126 35.625 40 33.8377 40 31.6406V30.625C40 30.1935 39.6502 29.8438 39.2188 29.8438ZM31.0938 16.8205L36.4062 13.4538V29.8438H31.0938V16.8205ZM24.2188 21.1773L29.5312 17.8107V29.8438H24.2188V21.1773ZM17.3438 25.5342L22.6562 22.1676V29.8438H17.3438V25.5342ZM10.4688 20.0914L15.7812 25.4039V29.8438H10.4688V20.0914ZM3.59375 25.4773L8.90625 20.1648V29.8438H3.59375V25.4773ZM38.4375 31.6406C38.4375 32.976 37.3511 34.0625 36.0156 34.0625H3.98438C2.64891 34.0625 1.5625 32.976 1.5625 31.6406V31.4062H2.8125H37.1875H38.4375V31.6406Z" fill="#00F0B5"/>
</svg>
