<svg width="40" height="40" viewBox="0 0 40 40" fill="none" xmlns="http://www.w3.org/2000/svg">
<g clip-path="url(#clip0_2196_2198)">
<path d="M39.7711 7.33719L32.6617 0.228828C32.5152 0.0823437 32.3166 0 32.1094 0H8.90625C7.61391 0 6.5625 1.05141 6.5625 2.34375V3.83312C2.72461 5.33859 0 9.0793 0 13.4446C0 13.876 0.349844 14.2259 0.78125 14.2259H10.3196C10.751 14.2259 11.1009 13.876 11.1009 13.4446V3.90625C11.1009 3.47484 10.751 3.125 10.3196 3.125C9.56664 3.125 8.83258 3.2068 8.125 3.3607V2.34375C8.125 1.91297 8.47547 1.5625 8.90625 1.5625H31.3281V6.32812C31.3281 7.62047 32.3795 8.67188 33.6719 8.67188H38.4375V37.6562C38.4375 38.087 38.087 38.4375 37.6562 38.4375H8.90625C8.47547 38.4375 8.125 38.087 8.125 37.6562V30.9635C8.125 30.5321 7.77516 30.1823 7.34375 30.1823C6.91234 30.1823 6.5625 30.5321 6.5625 30.9635V37.6562C6.5625 38.9486 7.61391 40 8.90625 40H37.6562C38.9486 40 40 38.9486 40 37.6562V7.88961C40 7.68242 39.9177 7.48367 39.7711 7.33719ZM9.53828 4.72211V12.6634H1.59703C1.97055 8.45648 5.33148 5.09562 9.53828 4.72211ZM33.6719 7.10938C33.2411 7.10938 32.8906 6.75891 32.8906 6.32812V2.66719L37.3334 7.10938H33.6719Z" fill="#23AE8C"/>
<path d="M7.89602 27.5727C7.75078 27.4273 7.54922 27.3438 7.34375 27.3438C7.13828 27.3438 6.93672 27.4273 6.79141 27.5727C6.64609 27.718 6.5625 27.9195 6.5625 28.125C6.5625 28.3305 6.64602 28.532 6.79141 28.6773C6.93672 28.8227 7.13828 28.9062 7.34375 28.9062C7.54922 28.9062 7.75078 28.8227 7.89602 28.6773C8.04141 28.532 8.125 28.3305 8.125 28.125C8.125 27.9195 8.04141 27.718 7.89602 27.5727Z" fill="#23AE8C"/>
<path d="M13.1169 5.92383C12.6855 5.92383 12.3356 6.27367 12.3356 6.70508V15.4621H3.57861C3.14721 15.4621 2.79736 15.812 2.79736 16.2434C2.79736 21.9336 7.42666 26.563 13.1169 26.563C18.8071 26.563 23.4365 21.9336 23.4365 16.2434C23.4365 10.5531 18.8071 5.92383 13.1169 5.92383ZM13.8981 7.52094C15.727 7.68328 17.3959 8.41062 18.7291 9.52641L13.8981 14.3573V7.52094ZM13.1169 25.0005C8.5515 25.0005 4.7908 21.4888 4.39447 17.0246H13.1169C13.3325 17.0246 13.5277 16.9373 13.6691 16.796C13.6692 16.7959 13.6692 16.7959 13.6694 16.7958L19.8342 10.6311C21.1069 12.152 21.874 14.1098 21.874 16.2434C21.874 21.072 17.9456 25.0005 13.1169 25.0005Z" fill="#23AE8C"/>
<path d="M34.2236 24.6562C32.9312 24.6562 31.8798 25.7077 31.8798 27C31.8798 27.3239 31.9459 27.6326 32.0652 27.9134L27.5642 32.4145C27.2549 32.2637 26.9077 32.179 26.5412 32.179C26.1833 32.179 25.844 32.2599 25.5404 32.4039L22.5515 29.415C22.6551 29.1506 22.7126 28.8632 22.7126 28.5624C22.7126 27.2701 21.6612 26.2187 20.3688 26.2187C19.0765 26.2187 18.0251 27.2701 18.0251 28.5624C18.0251 28.9126 18.1028 29.2448 18.2411 29.5434L15.3743 32.4102C15.0689 32.2641 14.7272 32.1822 14.3667 32.1822C13.0744 32.1822 12.0229 33.2336 12.0229 34.5259C12.0229 35.8183 13.0744 36.8697 14.3667 36.8697C15.659 36.8697 16.7104 35.8183 16.7104 34.5259C16.7104 34.1637 16.6278 33.8204 16.4804 33.5139L19.3312 30.6631C19.6443 30.8184 19.9965 30.9062 20.369 30.9062C20.7897 30.9062 21.1844 30.7942 21.5261 30.5994L24.4307 33.504C24.2813 33.8122 24.1974 34.1578 24.1974 34.5227C24.1974 35.8151 25.2488 36.8665 26.5412 36.8665C27.8335 36.8665 28.8849 35.8151 28.8849 34.5227C28.8849 34.1666 28.8047 33.829 28.662 33.5265L33.121 29.0675C33.4498 29.2436 33.8252 29.3437 34.2236 29.3437C35.5159 29.3437 36.5673 28.2923 36.5673 27C36.5673 25.7077 35.5159 24.6562 34.2236 24.6562ZM14.3666 35.3073C13.9358 35.3073 13.5854 34.9568 13.5854 34.526C13.5854 34.0952 13.9358 33.7448 14.3666 33.7448C14.5764 33.7448 14.7666 33.8283 14.9071 33.9633C14.9102 33.9666 14.9129 33.9701 14.9162 33.9733C14.9199 33.977 14.924 33.9802 14.9278 33.9837C15.0637 34.1244 15.1479 34.3155 15.1479 34.526C15.1479 34.9567 14.7974 35.3073 14.3666 35.3073ZM20.3688 29.3437C19.938 29.3437 19.5876 28.9932 19.5876 28.5624C19.5876 28.1316 19.938 27.7812 20.3688 27.7812C20.7996 27.7812 21.1501 28.1316 21.1501 28.5624C21.1501 28.9932 20.7996 29.3437 20.3688 29.3437ZM26.541 35.304C26.1102 35.304 25.7597 34.9535 25.7597 34.5227C25.7597 34.092 26.1102 33.7415 26.541 33.7415C26.9718 33.7415 27.3222 34.092 27.3222 34.5227C27.3222 34.9535 26.9718 35.304 26.541 35.304ZM34.2234 27.7812C33.7926 27.7812 33.4422 27.4307 33.4422 26.9999C33.4422 26.5691 33.7927 26.2187 34.2234 26.2187C34.6542 26.2187 35.0047 26.5691 35.0047 26.9999C35.0047 27.4307 34.6542 27.7812 34.2234 27.7812Z" fill="#23AE8C"/>
<path d="M30.3184 18.3594H26.1951C25.7637 18.3594 25.4138 18.7092 25.4138 19.1406C25.4138 19.572 25.7636 19.9219 26.1951 19.9219H30.3184C30.7498 19.9219 31.0997 19.572 31.0997 19.1406C31.0997 18.7092 30.7498 18.3594 30.3184 18.3594Z" fill="#23AE8C"/>
<path d="M34.428 18.5883C34.2828 18.443 34.0812 18.3594 33.8757 18.3594C33.6703 18.3594 33.4687 18.4429 33.3234 18.5883C33.1781 18.7336 33.0945 18.9352 33.0945 19.1406C33.0945 19.3461 33.178 19.5477 33.3234 19.6929C33.4687 19.8382 33.6695 19.9219 33.8757 19.9219C34.0812 19.9219 34.2828 19.8383 34.428 19.6929C34.5733 19.5477 34.657 19.3461 34.657 19.1406C34.657 18.9352 34.5734 18.7336 34.428 18.5883Z" fill="#23AE8C"/>
<path d="M35.7383 10.8594H26.1951C25.7637 10.8594 25.4138 11.2092 25.4138 11.6406C25.4138 12.072 25.7636 12.4219 26.1951 12.4219H35.7383C36.1698 12.4219 36.5196 12.072 36.5196 11.6406C36.5196 11.2092 36.1698 10.8594 35.7383 10.8594Z" fill="#23AE8C"/>
<path d="M35.7383 14.6094H26.1951C25.7637 14.6094 25.4138 14.9592 25.4138 15.3906C25.4138 15.822 25.7636 16.1719 26.1951 16.1719H35.7383C36.1698 16.1719 36.5196 15.822 36.5196 15.3906C36.5196 14.9592 36.1698 14.6094 35.7383 14.6094Z" fill="#23AE8C"/>
</g>
<defs>
<clipPath id="clip0_2196_2198">
<rect width="40" height="40" fill="white"/>
</clipPath>
</defs>
</svg>
