<svg width="40" height="40" viewBox="0 0 40 40" fill="none" xmlns="http://www.w3.org/2000/svg">
<g clip-path="url(#clip0_2196_2182)">
<path d="M39.9958 17.5638C39.4728 13.1194 37.4349 8.92178 34.2575 5.74421C31.0801 2.56664 26.8826 0.528514 22.4382 0.00531195C22.2164 -0.0206255 21.9945 0.0492181 21.8278 0.197421C21.6611 0.345702 21.5657 0.558202 21.5657 0.781248V7.58483C21.5657 8.01623 21.9155 8.36608 22.3469 8.36608C22.7783 8.36608 23.1282 8.01623 23.1282 7.58483V1.68046C30.9462 2.97312 37.0285 9.05576 38.3207 16.8739H23.1282V12.9747C23.1282 12.5433 22.7783 12.1935 22.3469 12.1935C21.9155 12.1935 21.5657 12.5433 21.5657 12.9747V17.6551C21.5657 18.0865 21.9155 18.4364 22.3469 18.4364H39.22C39.4431 18.4364 39.6556 18.3411 39.8037 18.1743C39.9519 18.0075 40.0219 17.7854 39.9958 17.5638Z" fill="#00F0B5"/>
<path d="M22.3469 9.45508C21.9155 9.45508 21.5657 9.80492 21.5657 10.2363V10.257C21.5657 10.6884 21.9155 11.0382 22.3469 11.0382C22.7784 11.0382 23.1282 10.6884 23.1282 10.257V10.2363C23.1282 9.80492 22.7783 9.45508 22.3469 9.45508Z" fill="#00F0B5"/>
<path d="M18.4046 34.592C15.2515 34.5158 12.2667 33.4405 9.77286 31.4824C9.43333 31.2157 8.94232 31.2749 8.67591 31.6143C8.40935 31.9537 8.46849 32.4448 8.80786 32.7113C11.5687 34.8791 14.8742 36.0695 18.3669 36.154C18.3733 36.1541 18.3797 36.1542 18.3861 36.1542C18.8088 36.1542 19.1564 35.8168 19.1668 35.3919C19.1773 34.9606 18.836 34.6025 18.4046 34.592Z" fill="#00F0B5"/>
<path d="M21.3943 35.1722C21.3431 34.7437 20.9539 34.4379 20.526 34.489L20.5093 34.4909C20.081 34.542 19.775 34.9308 19.8261 35.3592C19.8735 35.7562 20.2107 36.0479 20.6009 36.0479C20.6318 36.0479 20.663 36.0461 20.6944 36.0424L20.7111 36.0404C21.1394 35.9893 21.4453 35.6006 21.3943 35.1722Z" fill="#00F0B5"/>
<path d="M37.0312 20.3125C37.0174 20.3125 37.0036 20.3129 36.99 20.3136H19.6875V2.96875C19.6875 2.53734 19.3376 2.1875 18.9062 2.1875C13.8561 2.1875 9.10842 4.15414 5.53749 7.72499C1.96664 11.2959 0 16.0436 0 21.0937C0 26.1438 1.96664 30.8915 5.53749 34.4624C9.10842 38.0333 13.8561 39.9999 18.9062 39.9999C23.9563 39.9999 28.704 38.0333 32.2749 34.4624C35.8458 30.8915 37.8124 26.1438 37.8124 21.0937C37.8124 20.6622 37.4626 20.3125 37.0312 20.3125ZM18.9062 38.4374C9.34287 38.4374 1.5625 30.6571 1.5625 21.0937C1.5625 11.7924 8.92311 4.17773 18.125 3.76742V21.0948C18.125 21.355 18.2527 21.5849 18.4483 21.7268C18.4482 21.7271 18.4481 21.7273 18.448 21.7275L32.4738 31.885C29.2935 35.8753 24.3937 38.4374 18.9062 38.4374ZM33.3918 30.6206L21.317 21.8761H36.2325C36.0889 25.0953 35.0627 28.0885 33.3918 30.6206Z" fill="#00F0B5"/>
</g>
<defs>
<clipPath id="clip0_2196_2182">
<rect width="40" height="40" fill="white"/>
</clipPath>
</defs>
</svg>
