<svg width="40" height="40" viewBox="0 0 40 40" fill="none" xmlns="http://www.w3.org/2000/svg">
<g clip-path="url(#clip0_2196_2200)">
<path d="M24.4021 28.4393C24.3683 27.8803 24.1233 27.3459 23.712 26.9348L20.7446 23.9668C21.224 23.8151 21.6566 23.5541 22.0089 23.2018L22.0844 23.1262C23.3921 21.8185 23.2872 19.5859 21.8505 18.1492C21.1669 17.4657 20.2827 17.0587 19.3607 17.003C18.4026 16.9451 17.5198 17.2692 16.8736 17.9155L16.7981 17.9909C16.4456 18.3434 16.1845 18.7761 16.0329 19.2556L13.0651 16.2877C12.1906 15.4132 10.8204 15.3604 10.0106 16.17L7.3208 18.8598C6.99166 19.189 6.85479 19.6674 6.95463 20.1395C7.06322 20.6529 7.42127 21.0727 7.91244 21.2624C8.22252 21.3823 8.50369 21.5669 8.74799 21.8112L8.83322 21.8964C9.2465 22.3097 9.49213 22.835 9.5247 23.3756C9.55525 23.8806 9.39267 24.3381 9.06705 24.6637C8.74142 24.9894 8.28377 25.1523 7.77893 25.1213C7.2383 25.0887 6.71291 24.8431 6.29971 24.4298L6.21448 24.3446C5.97018 24.1003 5.78557 23.8191 5.66573 23.5091C5.47596 23.0179 5.0562 22.6598 4.54276 22.5512C4.07065 22.4514 3.59222 22.5883 3.263 22.9174L0.576284 25.6043C-0.233324 26.414 -0.18059 27.7841 0.694018 28.6587L3.66182 31.6266C3.18229 31.7783 2.74956 32.0394 2.39714 32.3918L2.32159 32.4673C1.01394 33.775 1.11886 36.0076 2.5555 37.4443C3.31823 38.207 4.30495 38.5944 5.25877 38.5943C6.10174 38.5943 6.91901 38.2916 7.53244 37.6781L7.60799 37.6026C7.96041 37.2502 8.22143 36.8175 8.37314 36.3379L11.341 39.3057C11.7522 39.717 12.2866 39.962 12.8456 39.9958C12.8884 39.9984 12.9311 39.9997 12.9737 39.9997C13.5132 39.9997 14.0256 39.7934 14.3956 39.4235L16.9539 36.8651C17.1527 37.3484 17.4452 37.785 17.824 38.1639L17.9092 38.2492C19.3459 39.6857 21.5785 39.7907 22.8862 38.483C24.194 37.1753 24.0891 34.9426 22.6524 33.506L22.5672 33.4208C22.1883 33.0418 21.7517 32.7494 21.2684 32.5507L23.8298 29.9893C24.2289 29.5901 24.4375 29.0252 24.4021 28.4393ZM22.725 28.8844L20.0352 31.5742C19.7062 31.9033 19.5692 32.3817 19.6691 32.8538C19.7776 33.3672 20.1356 33.787 20.6269 33.9768C20.9369 34.0967 21.2181 34.2813 21.4624 34.5257L21.5476 34.6109C22.3751 35.4383 22.48 36.6797 21.7815 37.3782C21.083 38.0767 19.8415 37.9718 19.0142 37.1443L18.929 37.0591C18.6847 36.8148 18.5 36.5336 18.3802 36.2236C18.1904 35.7324 17.7705 35.3743 17.2571 35.2658C16.7849 35.166 16.3066 35.3029 15.9775 35.632L13.2908 38.3188C13.1827 38.4269 13.0403 38.4427 12.9399 38.4363C12.7649 38.4257 12.5849 38.34 12.4459 38.2011L11.2554 37.0105L13.8481 34.4179C14.1531 34.1128 14.1531 33.6181 13.8481 33.3129C13.543 33.0078 13.0483 33.0079 12.7431 33.3129L10.1505 35.9056L9.3415 35.0966C9.04564 34.8008 8.65596 34.6407 8.26322 34.6407C8.12744 34.6407 7.99119 34.6599 7.85838 34.6992C7.37807 34.8415 7.02893 35.2195 6.92448 35.7105C6.85885 36.0189 6.71705 36.2837 6.50299 36.4978L6.42744 36.5732C5.72901 37.2718 4.48745 37.1668 3.66018 36.3394C2.83276 35.512 2.72784 34.2707 3.42628 33.5722L3.50183 33.4966C3.71589 33.2825 3.98073 33.1408 4.28909 33.0751C4.78018 32.9707 5.15823 32.6215 5.30049 32.1411C5.45346 31.6244 5.30112 31.0562 4.90307 30.6582L1.79886 27.5537C1.65988 27.4148 1.57417 27.2347 1.56355 27.0598C1.55745 26.9594 1.573 26.8171 1.68105 26.7089L4.2394 24.1505C4.43815 24.6338 4.73065 25.0704 5.10948 25.4494L5.19471 25.5346C6.63143 26.9712 8.864 27.0761 10.1718 25.7684C11.4795 24.4607 11.3746 22.2281 9.93791 20.7914L9.85267 20.7062C9.47377 20.3273 9.0372 20.0348 8.55385 19.8361L11.1152 17.2747C11.3124 17.0777 11.6993 17.1316 11.9601 17.3924L15.0645 20.4967C15.4625 20.8948 16.0307 21.0471 16.5474 20.8941C17.0277 20.752 17.3769 20.3738 17.4814 19.8827C17.547 19.5745 17.6888 19.3096 17.9029 19.0955L17.9784 19.02C18.3041 18.6945 18.7614 18.532 19.2666 18.5624C19.8072 18.595 20.3326 18.8406 20.7458 19.2539C21.5732 20.0814 21.6781 21.3228 20.9796 22.0212L20.9041 22.0967C20.6901 22.3108 20.4252 22.4526 20.1169 22.5182C19.6259 22.6226 19.2477 22.9718 19.1055 23.4522C18.9525 23.9688 19.1048 24.5371 19.5029 24.9352L22.6073 28.0396C22.7462 28.1785 22.8319 28.3585 22.8425 28.5334C22.8486 28.6339 22.8331 28.7762 22.725 28.8844Z" fill="#23AE8C"/>
<path d="M15.8529 31.309C15.7076 31.1637 15.506 31.0801 15.3005 31.0801C15.0951 31.0801 14.8935 31.1637 14.7482 31.309C14.6029 31.4543 14.5193 31.6559 14.5193 31.8613C14.5193 32.0668 14.6029 32.2684 14.7482 32.4137C14.8935 32.559 15.0943 32.6426 15.3005 32.6426C15.506 32.6426 15.7076 32.559 15.8529 32.4137C15.9982 32.2684 16.0818 32.0668 16.0818 31.8613C16.0818 31.6559 15.9982 31.4543 15.8529 31.309Z" fill="#23AE8C"/>
<path d="M32.4435 9.92227C32.2981 9.77695 32.0966 9.69336 31.8911 9.69336C31.6856 9.69336 31.4841 9.77695 31.3388 9.92227C31.1935 10.0676 31.1099 10.2691 31.1099 10.4746C31.1099 10.6801 31.1935 10.8816 31.3388 11.0269C31.4841 11.1723 31.6856 11.2559 31.8911 11.2559C32.0966 11.2559 32.2981 11.1723 32.4435 11.0269C32.5888 10.8816 32.6724 10.6801 32.6724 10.4746C32.6724 10.2691 32.5888 10.0676 32.4435 9.92227Z" fill="#23AE8C"/>
<path d="M38.293 17.9555C37.8685 17.531 37.355 17.2064 36.803 17.0126L39.422 14.3936C39.8212 13.9945 40.0298 13.4295 39.9944 12.8436C39.9606 12.2846 39.7156 11.7502 39.3043 11.3389L36.3951 8.42927C36.8053 8.27263 37.1782 8.03232 37.4859 7.72458L37.5614 7.64903C38.8691 6.3413 38.7642 4.10873 37.3275 2.67201C35.891 1.23545 33.6583 1.13053 32.3505 2.43819L32.2749 2.51373C31.9672 2.82154 31.7268 3.19459 31.5702 3.6049L28.6573 0.692095C27.7827 -0.182512 26.4125 -0.235325 25.6028 0.574361L22.9837 3.19342C22.79 2.64139 22.4653 2.12787 22.0408 1.70342L21.9556 1.61819C20.519 0.18155 18.2863 0.076706 16.9786 1.38436C15.6709 2.69209 15.7758 4.92474 17.2123 6.36123L17.2977 6.44662C17.7221 6.87099 18.2356 7.19568 18.7877 7.3895L16.1686 10.0086C15.3589 10.8182 15.4117 12.1884 16.2865 13.0632L19.3936 16.168C19.7918 16.5661 20.3603 16.7183 20.8767 16.5654C21.357 16.4232 21.7061 16.045 21.8107 15.554C21.8762 15.2457 22.018 14.9809 22.2322 14.7668L22.3077 14.6913C22.6333 14.3657 23.0916 14.2029 23.5958 14.2336C24.1364 14.2663 24.6618 14.5119 25.075 14.9252C25.4883 15.3385 25.7339 15.8638 25.7665 16.4044C25.7971 16.9095 25.6345 17.367 25.3089 17.6926L25.2334 17.7681C25.0193 17.9821 24.7545 18.1239 24.4462 18.1896C23.9551 18.294 23.5771 18.6432 23.4348 19.1235C23.2818 19.64 23.434 20.2081 23.832 20.6063L26.9335 23.7102C27.3929 24.1696 27.9891 24.4023 28.569 24.4023C29.093 24.4023 29.6037 24.2123 29.9881 23.8279L32.6071 21.2089C32.8009 21.7608 33.1256 22.2744 33.5499 22.6988L33.6353 22.7841C35.072 24.2207 37.3045 24.3256 38.6123 23.0179C39.9199 21.7102 39.8151 19.4775 38.3785 18.0409L38.293 17.9555ZM37.5071 21.9128C36.8087 22.6113 35.5672 22.5064 34.7399 21.679L34.6546 21.5938C34.3824 21.3217 34.1785 20.9927 34.0648 20.6424C33.8996 20.1337 33.4736 19.74 32.9531 19.615C32.4673 19.4984 31.974 19.6318 31.6337 19.9721L28.883 22.7228C28.7748 22.831 28.6323 22.8466 28.5321 22.8403C28.3571 22.8298 28.1771 22.744 28.0384 22.6053L25.0732 19.6378C25.5529 19.4861 25.9856 19.225 26.338 18.8727L26.4135 18.7971C27.0597 18.1509 27.3838 17.2675 27.326 16.31C27.2703 15.3879 26.8632 14.5036 26.1797 13.8202C25.4962 13.1368 24.612 12.7296 23.6899 12.6739C22.7319 12.6164 21.849 12.9401 21.2028 13.5863L21.1272 13.6618C20.7748 14.0143 20.5137 14.4471 20.3621 14.9266L17.3913 11.9581C17.2523 11.8192 17.1666 11.6391 17.156 11.4642C17.1499 11.3638 17.1654 11.2214 17.2735 11.1132L20.0243 8.36255C20.3646 8.02224 20.498 7.52896 20.3814 7.04302C20.2563 6.52255 19.8626 6.09662 19.354 5.93146C19.0038 5.81771 18.6748 5.61373 18.4028 5.3417L18.3174 5.2563C17.49 4.42888 17.3851 3.18756 18.0836 2.48905C18.7819 1.79053 20.0235 1.89537 20.8508 2.72287L20.9361 2.80811C21.2083 3.08022 21.4122 3.4092 21.526 3.75943C21.6912 4.26818 22.1172 4.66185 22.6376 4.78677C23.1235 4.90342 23.6168 4.7699 23.9571 4.42967L26.7077 1.67897C26.9049 1.48202 27.2917 1.53584 27.5525 1.7967L30.588 4.83224C30.9728 5.21701 31.5251 5.37396 32.0292 5.24146C32.4971 5.11865 32.854 4.76763 32.9837 4.30256C33.0577 4.03756 33.191 3.8074 33.3799 3.6185L33.4554 3.54295C34.1538 2.84443 35.3953 2.94928 36.2227 3.77678C37.0501 4.6042 37.155 5.84552 36.4565 6.54404L36.381 6.61958C36.1921 6.80857 35.9619 6.94185 35.697 7.01575C35.2319 7.14552 34.8809 7.50232 34.7581 7.97021C34.6257 8.47442 34.7825 9.02669 35.1673 9.41153L38.1994 12.4436C38.3384 12.5825 38.4241 12.7626 38.4347 12.9375C38.4408 13.0379 38.4253 13.1804 38.3171 13.2885L37.0634 14.5422L34.4743 11.9531C34.1692 11.648 33.6746 11.648 33.3695 11.9531C33.0644 12.2582 33.0643 12.7529 33.3695 13.0579L35.9585 15.6471L35.5663 16.0393C35.2261 16.3796 35.0926 16.8728 35.2092 17.3587C35.3342 17.8792 35.7279 18.3051 36.2366 18.4703C36.5868 18.5841 36.9157 18.7881 37.1879 19.0603L37.2731 19.1455C38.1008 19.973 38.2056 21.2145 37.5071 21.9128Z" fill="#23AE8C"/>
</g>
<defs>
<clipPath id="clip0_2196_2200">
<rect width="40" height="40" fill="white"/>
</clipPath>
</defs>
</svg>
