<svg width="40" height="40" viewBox="0 0 40 40" fill="none" xmlns="http://www.w3.org/2000/svg">
<g clip-path="url(#clip0_2196_2193)">
<path d="M37.6562 8.4375H29.2177V6.09375C29.2177 3.07828 26.7645 0.625 23.749 0.625H16.253C13.2375 0.625 10.7842 3.07828 10.7842 6.09375V8.4375H2.34375C1.05141 8.4375 0 9.48891 0 10.7812V19.0625C0 20.2423 0.62625 21.2784 1.56352 21.8567V37.0312C1.56352 38.3236 2.61492 39.375 3.90727 39.375H17.1883C17.6197 39.375 17.9695 39.0252 17.9695 38.5938C17.9695 38.1623 17.6197 37.8125 17.1883 37.8125H3.90727C3.47648 37.8125 3.12602 37.462 3.12602 37.0312V22.3398C3.1775 22.3422 3.22914 22.3438 3.28125 22.3438H8.25773C8.37562 24.0662 9.81367 25.4319 11.5655 25.4319C13.3173 25.4319 14.7554 24.0662 14.8732 22.3438H25.1287C25.2466 24.0662 26.6847 25.4319 28.4365 25.4319C30.1883 25.4319 31.6264 24.0662 31.7442 22.3438H36.7188C36.7715 22.3438 36.8238 22.3423 36.876 22.3398V37.0312C36.876 37.462 36.5255 37.8125 36.0948 37.8125H23.4387C23.0073 37.8125 22.6575 38.1623 22.6575 38.5938C22.6575 39.0252 23.0073 39.375 23.4387 39.375H36.0948C37.3871 39.375 38.4385 38.3236 38.4385 37.0312V21.8555C39.3747 21.277 40 20.2416 40 19.0625V10.7812C40 9.48891 38.9486 8.4375 37.6562 8.4375ZM12.3467 6.09375C12.3467 3.93984 14.0991 2.1875 16.253 2.1875H23.749C25.9029 2.1875 27.6552 3.93984 27.6552 6.09375V8.4375H26.0927V6.09375C26.0927 4.80141 25.0413 3.75 23.749 3.75H16.253C14.9606 3.75 13.9092 4.80141 13.9092 6.09375V8.4375H12.3467V6.09375ZM24.5302 6.09375V8.4375H15.4717V6.09375C15.4717 5.66297 15.8222 5.3125 16.253 5.3125H23.749C24.1798 5.3125 24.5302 5.66297 24.5302 6.09375ZM13.3195 21.561C13.3195 21.5615 13.3194 21.562 13.3194 21.5625C13.3194 21.563 13.3195 21.5635 13.3195 21.564V22.1153C13.3195 23.0825 12.5327 23.8694 11.5655 23.8694C10.5983 23.8694 9.81148 23.0825 9.81148 22.1154V20.1562H13.3195V21.561ZM30.1905 22.1154C30.1905 23.0825 29.4037 23.8694 28.4365 23.8694C27.4693 23.8694 26.6825 23.0825 26.6825 22.1154V20.1562H30.1905V22.1154ZM38.4375 19.0625C38.4375 20.0102 37.6665 20.7812 36.7188 20.7812H31.753V19.375C31.753 18.9435 31.4031 18.5938 30.9717 18.5938H25.9013C25.4698 18.5938 25.12 18.9435 25.12 19.375V20.7812H14.882V19.375C14.882 18.9435 14.5321 18.5938 14.1007 18.5938H9.03023C8.59883 18.5938 8.24898 18.9435 8.24898 19.375V20.7812H3.28125C2.33352 20.7812 1.5625 20.0102 1.5625 19.0625V10.7812C1.5625 10.3505 1.91297 10 2.34375 10H11.5655H14.6905H25.3115H28.4365H37.6562C38.087 10 38.4375 10.3505 38.4375 10.7812V19.0625Z" fill="#23AE8C"/>
<path d="M20.9073 38.0414C20.7612 37.8961 20.5605 37.8125 20.3542 37.8125C20.1487 37.8125 19.948 37.8961 19.8019 38.0414C19.6566 38.1867 19.5737 38.3883 19.5737 38.5938C19.5737 38.7992 19.6566 39.0008 19.8019 39.1461C19.948 39.2914 20.1495 39.375 20.3542 39.375C20.5597 39.375 20.7612 39.2914 20.9073 39.1461C21.0526 39.0008 21.1355 38.7992 21.1355 38.5938C21.1355 38.3883 21.0526 38.1867 20.9073 38.0414Z" fill="#23AE8C"/>
<path d="M25.7092 12.4555C25.564 12.3102 25.3625 12.2266 25.157 12.2266C24.9515 12.2266 24.75 12.3102 24.6046 12.4555C24.4592 12.6008 24.3757 12.8023 24.3757 13.0078C24.3757 13.2133 24.4593 13.4148 24.6046 13.5602C24.75 13.7055 24.9515 13.7891 25.157 13.7891C25.3625 13.7891 25.564 13.7055 25.7092 13.5602C25.8546 13.4148 25.9382 13.2133 25.9382 13.0078C25.9382 12.8023 25.8546 12.6008 25.7092 12.4555Z" fill="#23AE8C"/>
<path d="M38.9826 12.2266H28.4431C28.0117 12.2266 27.6619 12.5763 27.6619 13.0078C27.6619 13.4393 28.0117 13.7891 28.4431 13.7891H38.9826C39.4141 13.7891 39.7638 13.4393 39.7638 13.0078C39.7638 12.5763 39.414 12.2266 38.9826 12.2266Z" fill="#23AE8C"/>
</g>
<defs>
<clipPath id="clip0_2196_2193">
<rect width="40" height="40" fill="white"/>
</clipPath>
</defs>
</svg>
